<?xml version="1.0" standalone="no"?>
<!DOCTYPE svg PUBLIC "-//W3C//DTD SVG 20010904//EN"
 "http://www.w3.org/TR/2001/REC-SVG-20010904/DTD/svg10.dtd">
<svg version="1.0" xmlns="http://www.w3.org/2000/svg"
 width="500.000000pt" height="500.000000pt" viewBox="0 0 500.000000 500.000000"
 preserveAspectRatio="xMidYMid meet">

<g transform="translate(0.000000,500.000000) scale(0.100000,-0.100000)"
fill="#000000" stroke="none">
<path d="M1795 4972 l-110 -17 125 -6 c458 -24 871 -208 1193 -531 85 -87 97
-102 97 -133 0 -22 -8 -43 -20 -55 -39 -39 -62 -27 -178 88 -216 214 -470 361
-753 437 -478 127 -991 31 -1402 -262 -295 -211 -565 -629 -672 -1040 -171
-655 -18 -1351 407 -1858 291 -348 659 -579 1098 -690 469 -119 971 -64 1418
155 627 307 1048 900 1138 1603 20 159 15 451 -11 592 -67 370 -211 691 -432
965 -73 90 -233 249 -323 321 -227 182 -520 324 -815 394 -229 55 -533 70
-760 37z m582 -822 c364 -91 672 -338 836 -672 99 -200 132 -364 124 -612 -4
-128 -10 -181 -30 -257 -126 -480 -502 -833 -1002 -940 -94 -21 -371 -17 -475
5 -751 162 -1192 923 -954 1644 121 362 418 666 779 795 214 76 504 91 722 37z"/>
<path d="M2008 3697 c-58 -17 -110 -56 -146 -110 -27 -40 -27 -43 -30 -229
l-4 -188 -153 0 c-194 0 -240 -9 -299 -61 -123 -108 -108 -319 29 -404 l48
-30 189 -3 188 -3 0 -178 c0 -170 1 -179 25 -228 73 -146 284 -179 403 -62 59
58 66 86 70 287 l4 182 176 0 c202 0 231 8 293 77 46 50 63 101 63 178 -1 113
-81 216 -185 236 -24 4 -112 8 -196 9 l-151 0 -4 183 c-3 162 -6 186 -25 222
-53 101 -181 153 -295 122z"/>
<path d="M3795 1518 c-90 -116 -258 -277 -397 -380 l-109 -82 503 -502 c477
-476 506 -503 563 -524 133 -50 278 -31 385 49 167 126 214 338 114 521 -17
30 -188 209 -507 527 l-482 481 -70 -90z m777 -947 c103 -71 124 -211 46 -306
-81 -98 -230 -99 -315 -2 -89 102 -53 266 72 324 48 21 155 13 197 -16z"/>
</g>
</svg>
